G04 ================== begin FILE IDENTIFICATION RECORD ==================*
G04 Layout Name:  proiect_layout.brd*
G04 Film Name:    BO*
G04 File Format:  Gerber RS274X*
G04 File Origin:  Cadence Allegro 17.4-S028*
G04 Origin Date:  Sat Dec 10 14:56:01 2022*
G04 *
G04 Layer:  DRAWING FORMAT/OUTLINE*
G04 Layer:  DRAWING FORMAT/DRAWING_ORIGIN*
G04 Layer:  BOARD GEOMETRY/DIMENSION*
G04 Layer:  BOARD GEOMETRY/DESIGN_OUTLINE*
G04 *
G04 Offset:    (0.00 0.00)*
G04 Mirror:    No*
G04 Mode:      Positive*
G04 Rotation:  0*
G04 FullContactRelief:  No*
G04 UndefLineWidth:     1.00*
G04 ================== end FILE IDENTIFICATION RECORD ====================*
%FSLAX25Y25*MOIN*%
%IR0*IPPOS*OFA0.00000B0.00000*MIA0B0*SFA1.00000B1.00000*%
%AMMACRO10*
1,1,.001,.025,0.0*
20,1,.001,.025,0.0,-.025,0.0,0.0*
1,1,.001,-.025,0.0*
1,1,.001,0.0,.025*
20,1,.001,0.0,.025,0.0,-.025,0.0*
1,1,.001,0.0,-.025*
%
%ADD10MACRO10*%
%ADD11C,.001*%
G75*
%LPD*%
G75*
G54D10*
X0Y0D03*
G54D11*
G01D02*
Y157480D01*
X157480D01*
Y0D01*
X0D01*
G01Y9843D02*
Y192843D01*
G01X15748Y185460D02*
X0Y183000D01*
X15748Y180540D01*
Y185460D01*
G01X9775Y183000D02*
X0D01*
G01X23800Y176750D02*
Y189250D01*
X21940Y186750D01*
G01Y176750D02*
X25660D01*
G01X32790Y178625D02*
X33720Y177583D01*
X34805Y176958D01*
X36200Y176750D01*
X37595Y177167D01*
X38680Y178000D01*
X39455Y179458D01*
X39610Y181125D01*
X39300Y182792D01*
X38525Y183833D01*
X37440Y184667D01*
X36355Y184875D01*
X35270Y184667D01*
X33875Y183833D01*
X34340Y189250D01*
X38525D01*
G01X48290Y176750D02*
X48600Y179458D01*
X49065Y181750D01*
X49685Y183833D01*
X50460Y186125D01*
X51700Y189250D01*
X45500D01*
G01X62860Y176750D02*
Y189250D01*
X57125Y180292D01*
X64875D01*
G01X73400Y176333D02*
X73090Y176542D01*
Y176958D01*
X73400Y177167D01*
X73710Y176958D01*
Y176542D01*
X73400Y176333D01*
G01X85800Y176750D02*
X86885Y176958D01*
X88125Y177583D01*
X88900Y178625D01*
X89210Y180083D01*
X88900Y181541D01*
X87970Y182792D01*
X86575Y183417D01*
X85025D01*
X84095Y183833D01*
X83320Y184875D01*
X83010Y186333D01*
X83475Y187792D01*
X84560Y188833D01*
X85800Y189250D01*
X87040Y188833D01*
X88125Y187792D01*
X88590Y186333D01*
X88280Y184875D01*
X87505Y183833D01*
X86575Y183417D01*
X85025D01*
X83630Y182792D01*
X82700Y181541D01*
X82390Y180083D01*
X82700Y178625D01*
X83475Y177583D01*
X84715Y176958D01*
X85800Y176750D01*
G01X98200Y189250D02*
X96960Y188833D01*
X96030Y187792D01*
X95410Y186542D01*
X94945Y184875D01*
X94790Y183000D01*
X94945Y181125D01*
X95410Y179458D01*
X96030Y178208D01*
X96960Y177167D01*
X98200Y176750D01*
X99440Y177167D01*
X100370Y178208D01*
X100990Y179458D01*
X101455Y181125D01*
X101610Y183000D01*
X101455Y184875D01*
X100990Y186542D01*
X100370Y187792D01*
X99440Y188833D01*
X98200Y189250D01*
G01X112225Y183000D02*
X157480D01*
G01Y9843D02*
Y192843D01*
G01X141732Y180540D02*
X157480Y183000D01*
X141732Y185460D01*
Y180540D01*
G01X167323Y0D02*
X210843D01*
G01X163800Y66750D02*
Y79250D01*
X161940Y76750D01*
G01Y66750D02*
X165660D01*
G01X172790Y68625D02*
X173720Y67583D01*
X174805Y66958D01*
X176200Y66750D01*
X177595Y67167D01*
X178680Y68000D01*
X179455Y69458D01*
X179610Y71125D01*
X179300Y72792D01*
X178525Y73833D01*
X177440Y74667D01*
X176355Y74875D01*
X175270Y74667D01*
X173875Y73833D01*
X174340Y79250D01*
X178525D01*
G01X188290Y66750D02*
X188600Y69458D01*
X189065Y71750D01*
X189685Y73833D01*
X190460Y76125D01*
X191700Y79250D01*
X185500D01*
G01X202860Y66750D02*
Y79250D01*
X197125Y70292D01*
X204875D01*
G01X213400Y66333D02*
X213090Y66542D01*
Y66958D01*
X213400Y67167D01*
X213710Y66958D01*
Y66542D01*
X213400Y66333D01*
G01X225800Y66750D02*
X226885Y66958D01*
X228125Y67583D01*
X228900Y68625D01*
X229210Y70083D01*
X228900Y71541D01*
X227970Y72792D01*
X226575Y73417D01*
X225025D01*
X224095Y73833D01*
X223320Y74875D01*
X223010Y76333D01*
X223475Y77792D01*
X224560Y78833D01*
X225800Y79250D01*
X227040Y78833D01*
X228125Y77792D01*
X228590Y76333D01*
X228280Y74875D01*
X227505Y73833D01*
X226575Y73417D01*
X225025D01*
X223630Y72792D01*
X222700Y71541D01*
X222390Y70083D01*
X222700Y68625D01*
X223475Y67583D01*
X224715Y66958D01*
X225800Y66750D01*
G01X238200Y79250D02*
X236960Y78833D01*
X236030Y77792D01*
X235410Y76542D01*
X234945Y74875D01*
X234790Y73000D01*
X234945Y71125D01*
X235410Y69458D01*
X236030Y68208D01*
X236960Y67167D01*
X238200Y66750D01*
X239440Y67167D01*
X240370Y68208D01*
X240990Y69458D01*
X241455Y71125D01*
X241610Y73000D01*
X241455Y74875D01*
X240990Y76542D01*
X240370Y77792D01*
X239440Y78833D01*
X238200Y79250D01*
G01X167323Y157480D02*
X210843D01*
G01X201000Y57375D02*
Y0D01*
G01X198540Y15748D02*
X201000Y0D01*
X203460Y15748D01*
X198540D01*
G01X201000Y88625D02*
Y157480D01*
G01X203460Y141732D02*
X201000Y157480D01*
X198540Y141732D01*
X203460D01*
M02*
