M48
METRIC,TZ
T01C.40005
;LEADER: 12 
;HEADER: 
;CODE  : ASCII 
;FILE  : proiect_layout-1-2.drl for  ... layers TOP and BOTTOM
;DESIGN: proiect_layout.brd
;T01 Holesize 1. = 0.400050 Tolerance = +0.000000/-0.000000 PLATED MM Quantity = 40
%
G90
T01
X177800Y3200400
X3454375Y2489200
X3759200Y1092200
X1488440Y584200
X982980Y1193800
X2870200Y2057400
X2387600Y1905000
X3225800Y1905000
X2209800Y2616200
X3073400Y2946400
X3022600Y1930400
X3098800Y660400
X1295400Y1879600
X1193800Y2628900
X2514600Y508000
X2560726Y3632200
X2260600Y2971800
X2895600Y2387600
X3225800Y2692400
X3225800Y2489200
X1752600Y1676400
X2895600Y1320800
X787400Y1778000
X660400Y2768600
X3225800Y1625600
X2692400Y965200
X2032000Y1854200
X3632200Y2514600
X2743200Y2209800
X1625600Y2514600
X3403600Y2108200
X1168400Y2337181
X1168400Y1651000
X1574800Y1854200
X1574800Y1651000
X2717800Y2844800
X3759200Y3200400
X2133600Y3403600
X1727200Y2971800
X3280893Y2868447
M30
