G04 ================== begin FILE IDENTIFICATION RECORD ==================*
G04 Layout Name:  proiect_layout.brd*
G04 Film Name:    SMTOP*
G04 File Format:  Gerber RS274X*
G04 File Origin:  Cadence Allegro 17.4-S028*
G04 Origin Date:  Sat Dec 10 13:16:26 2022*
G04 *
G04 Layer:  VIA CLASS/SOLDERMASK_TOP*
G04 Layer:  PIN/SOLDERMASK_TOP*
G04 Layer:  PACKAGE GEOMETRY/SOLDERMASK_TOP*
G04 Layer:  DRC ERROR CLASS/SOLDERMASK_TOP*
G04 Layer:  BOARD GEOMETRY/SOLDERMASK_TOP*
G04 *
G04 Offset:    (0.00 0.00)*
G04 Mirror:    No*
G04 Mode:      Positive*
G04 Rotation:  0*
G04 FullContactRelief:  No*
G04 UndefLineWidth:     0.00*
G04 ================== end FILE IDENTIFICATION RECORD ====================*
%FSLAX25Y25*MOIN*%
%IR0*IPPOS*OFA0.00000B0.00000*MIA0B0*SFA1.00000B1.00000*%
%ADD12R,.07X.11*%
%ADD10R,.06X.06*%
%ADD16R,.06112X.06112*%
%ADD13C,.04575*%
%ADD14C,.07874*%
%ADD15R,.046X.06*%
%ADD11R,.06X.046*%
%ADD18R,.08874X.06118*%
%ADD17R,.06118X.08874*%
%LPD*%
G75*
G54D10*
X9600Y29000D03*
X10000Y61000D03*
X9600Y51000D03*
X10000Y41000D03*
X9600Y91000D03*
X10000Y81000D03*
X9600Y71000D03*
X10000Y101000D03*
X18000Y29000D03*
X18400Y61000D03*
X18000Y51000D03*
X18400Y41000D03*
X18000Y91000D03*
X18400Y81000D03*
X18000Y71000D03*
X18400Y101000D03*
X39000Y116000D03*
X30600D03*
X38000Y137000D03*
Y145400D03*
X27000Y126000D03*
X35400D03*
X58000Y15000D03*
X66400D03*
X67000Y33000D03*
X58600D03*
X70000Y82000D03*
Y90400D03*
X82000Y28000D03*
X90400D03*
X82000Y15000D03*
X90400D03*
X91000Y41000D03*
X82600D03*
X87000Y82000D03*
Y90400D03*
X101000Y80000D03*
Y88400D03*
X75000Y137000D03*
Y145400D03*
X91000Y138000D03*
Y146400D03*
X113000Y28000D03*
X104600D03*
X108000Y15000D03*
X116400D03*
X131600Y42000D03*
X120000Y60000D03*
Y68400D03*
X110000Y137000D03*
Y145400D03*
X124000Y138000D03*
Y146400D03*
X146000Y31000D03*
X137600D03*
X140000Y42000D03*
X136000Y65000D03*
X144400D03*
X136000Y54000D03*
X144400D03*
X144000Y75000D03*
X135600D03*
G54D11*
X9500Y116800D03*
X38500Y32000D03*
Y39700D03*
X30500Y35800D03*
X40500Y78000D03*
Y85700D03*
X32500Y81800D03*
X39500Y99000D03*
Y106700D03*
X31500Y102800D03*
X17500Y113000D03*
Y120700D03*
X57500Y80000D03*
Y87700D03*
X49500Y83800D03*
X71500Y104800D03*
X79500Y101000D03*
Y108700D03*
X148500Y85000D03*
Y92700D03*
X140500Y88800D03*
G54D12*
X11500Y141000D03*
X30500Y17000D03*
X24500Y141000D03*
X43500Y17000D03*
X132500Y14000D03*
X145500D03*
G54D13*
X7000Y126000D03*
X38700Y47000D03*
X31000Y70000D03*
X26000Y109000D03*
X58600Y23000D03*
X62000Y65000D03*
Y73000D03*
X46000Y65000D03*
Y92015D03*
X69000Y66000D03*
X51000Y74000D03*
X68000Y117000D03*
X64000Y99000D03*
X47000Y103500D03*
X99000Y20000D03*
X80000Y73000D03*
X94000Y75000D03*
X89000Y117000D03*
X87000Y103000D03*
X84000Y134000D03*
X100816Y143000D03*
X122000Y26000D03*
X106000Y38000D03*
X127000Y64000D03*
X114000Y52000D03*
X108000Y87000D03*
X114000Y94000D03*
X119000Y76000D03*
X127000Y75000D03*
X113000Y81000D03*
X129169Y112931D03*
X107000Y112000D03*
X127000Y98000D03*
Y106000D03*
X121000Y116000D03*
X148000Y43000D03*
X134000Y83000D03*
X143000Y99000D03*
X135999Y98000D03*
X148000Y126000D03*
G54D14*
X20000Y20000D03*
X137000Y137000D03*
G54D15*
X31000Y54500D03*
X38700D03*
X34800Y62500D03*
X62000Y111500D03*
X54300D03*
X58200Y103500D03*
X94000Y100500D03*
X101700D03*
X97800Y108500D03*
X99200Y118500D03*
X83000Y125500D03*
X75300D03*
X79200Y117500D03*
X95300Y126500D03*
X116000Y38500D03*
X123700D03*
X119800Y46500D03*
X119000Y83500D03*
X126700D03*
X122800Y91500D03*
X111000Y102500D03*
X118700D03*
X114800Y110500D03*
X115200Y120500D03*
X131300Y129500D03*
X119000Y128500D03*
X111300D03*
X103000Y126500D03*
X135200Y121500D03*
X136000Y106500D03*
X143700D03*
X139800Y114500D03*
X139000Y129500D03*
G54D16*
X72000Y44945D03*
Y54000D03*
X62055Y146000D03*
X53000D03*
X107000Y53945D03*
Y63000D03*
G54D17*
X49756Y49472D03*
X84756Y58472D03*
G54D18*
X57528Y123756D03*
M02*
