G04 ================== begin FILE IDENTIFICATION RECORD ==================*
G04 Layout Name:  proiect_layout.brd*
G04 Film Name:    TOP*
G04 File Format:  Gerber RS274X*
G04 File Origin:  Cadence Allegro 17.4-S028*
G04 Origin Date:  Sat Dec 10 12:12:33 2022*
G04 *
G04 Layer:  ETCH/TOP*
G04 Layer:  PIN/TOP*
G04 Layer:  VIA CLASS/TOP*
G04 *
G04 Offset:    (0.00 0.00)*
G04 Mirror:    No*
G04 Mode:      Positive*
G04 Rotation:  0*
G04 FullContactRelief:  No*
G04 UndefLineWidth:     0.00*
G04 ================== end FILE IDENTIFICATION RECORD ====================*
%FSLAX25Y25*MOIN*%
%IR0*IPPOS*OFA0.00000B0.00000*MIA0B0*SFA1.00000B1.00000*%
%ADD12R,.06X.1*%
%ADD10R,.05X.05*%
%ADD13C,.02575*%
%ADD16R,.05118X.05118*%
%ADD14C,.03937*%
%ADD15R,.036X.05*%
%ADD11R,.05X.036*%
%ADD18R,.07874X.05118*%
%ADD17R,.05118X.07874*%
%ADD19C,.022*%
%ADD20C,.018*%
%ADD21C,.028*%
%ADD22C,.0788*%
G75*
%LPD*%
G75*
G36*
G01X136405Y85000D02*
X144798D01*
Y83200D01*
G03X146000Y81998I1202J0D01*
G01X147898D01*
Y78752D01*
G02X147249Y78439I-400J0D01*
G03X146500Y78702I-750J-939D01*
G01X141500D01*
G03X140298Y77500I0J-1202D01*
G01Y72500D01*
G03X141500Y71298I1202J0D01*
G01X146500D01*
G03X147249Y71561I-1J1202D01*
G02X147898Y71248I249J-313D01*
G01Y68985D01*
G02X147349Y68614I-400J0D01*
G03X146900Y68702I-451J-1114D01*
G01X141900D01*
G03X140698Y67500I0J-1202D01*
G01Y62500D01*
G03X140961Y61751I1202J1D01*
G02X140648Y61102I-313J-249D01*
G01X139752D01*
G02X139439Y61751I0J400D01*
G03X139702Y62500I-939J750D01*
G01Y67500D01*
G03X138500Y68702I-1202J0D01*
G01X133500D01*
G03X132298Y67500I0J-1202D01*
G01Y67102D01*
X128000D01*
G03X126514Y66486I1J-2102D01*
G01X126458Y66430D01*
X126404Y66417D01*
G03X124511Y64000I597J-2417D01*
G03X124935Y62611I2489J1D01*
G03X125514Y61514I2065J389D01*
G01X129514Y57514D01*
G03X129736Y57321I1486J1486D01*
G02X129496Y56602I-241J-319D01*
G01X124022D01*
G02X123642Y57126I0J400D01*
G03X123702Y57500I-1142J375D01*
G01Y62500D01*
G03X122500Y63702I-1202J0D01*
G01X117500D01*
G03X116298Y62500I0J-1202D01*
G01Y57500D01*
G03X117242Y56327I1201J0D01*
G01X117398Y56292D01*
Y56000D01*
G03X118160Y54160I2603J0D01*
G01X126160Y46160D01*
G03X127643Y45423I1839J1840D01*
G02X127965Y44895I-55J-396D01*
G03X127898Y44500I1135J-396D01*
G01Y39500D01*
G03X129100Y38298I1202J0D01*
G01X129498D01*
Y36600D01*
G03X130114Y35114I2102J1D01*
G01X130714Y34514D01*
G03X132200Y33898I1487J1486D01*
G01X133913D01*
Y33684D01*
X133911Y33670D01*
G03X133899Y33501I1189J-169D01*
G01X133898Y33302D01*
X126120D01*
X126002Y33420D01*
Y34902D01*
X126101Y34960D01*
G03X126702Y36000I-601J1041D01*
G01Y41000D01*
G03X125500Y42202I-1202J0D01*
G01X121900D01*
G03X120698Y41000I0J-1202D01*
G01Y36000D01*
G03X121299Y34960I1202J1D01*
G01X121398Y34902D01*
Y28653D01*
X121043Y28298D01*
X121008Y28283D01*
G03X119511Y26000I992J-2283D01*
G03X122000Y23511I2489J0D01*
G03X124283Y25008I0J2489D01*
G01X124298Y25043D01*
X125327Y26073D01*
G03X126002Y27700I-1626J1628D01*
G01Y27778D01*
G02X126684Y28061I400J0D01*
G01X131373Y23373D01*
G03X133000Y22698I1628J1626D01*
G01X142347D01*
X143198Y21847D01*
Y20202D01*
X142500D01*
G03X141298Y19000I0J-1202D01*
G01Y9000D01*
G03X142500Y7798I1202J0D01*
G01X148500D01*
G03X149702Y9000I0J1202D01*
G01Y19000D01*
G03X148500Y20202I-1202J0D01*
G01X147802D01*
Y22800D01*
G03X147127Y24427I-2301J-1D01*
G01X144939Y26616D01*
G02X145222Y27298I283J282D01*
G01X148500D01*
G03X149702Y28500I0J1202D01*
G01Y33500D01*
G03X148500Y34702I-1202J0D01*
G01X148046D01*
X148002Y34841D01*
G03X147486Y35686I-2001J-642D01*
G01X145686Y37486D01*
G03X144200Y38102I-1487J-1486D01*
G01X143752D01*
G02X143439Y38751I0J400D01*
G03X143673Y39242I-939J749D01*
G01X143708Y39398D01*
X147000D01*
G03X148840Y40160I0J2603D01*
G01X149840Y41160D01*
G03X150254Y41700I-1840J1839D01*
G02X151000Y41500I346J-200D01*
G01Y5000D01*
X124938D01*
G02X124655Y5683I0J400D01*
G01X126486Y7514D01*
G03X127102Y9000I-1486J1487D01*
G01Y11330D01*
X127670Y11898D01*
X128298D01*
Y9000D01*
G03X129500Y7798I1202J0D01*
G01X135500D01*
G03X136702Y9000I0J1202D01*
G01Y19000D01*
G03X135500Y20202I-1202J0D01*
G01X129500D01*
G03X128298Y19000I0J-1202D01*
G01Y16102D01*
X126800D01*
G03X125314Y15486I1J-2102D01*
G01X123514Y13686D01*
G03X122898Y12200I1486J-1487D01*
G01Y9870D01*
X121130Y8102D01*
X34170D01*
X32602Y9670D01*
Y10798D01*
X33500D01*
G03X34702Y12000I0J1202D01*
G01Y22000D01*
G03X33500Y23202I-1202J0D01*
G01X27500D01*
G03X26298Y22000I0J-1202D01*
G01Y12000D01*
G03X27500Y10798I1202J0D01*
G01X28398D01*
Y8800D01*
G03X29014Y7314I2102J1D01*
G01X30645Y5683D01*
G02X30362Y5000I-283J-283D01*
G01X6000D01*
Y25060D01*
G02X6575Y25419I400J-1D01*
G03X7100Y25298I526J1081D01*
G01X12100D01*
G03X13302Y26500I0J1202D01*
G01Y31500D01*
G03X12273Y32689I-1201J0D01*
G01X12102Y32714D01*
Y37298D01*
X12500D01*
G03X13702Y38500I0J1202D01*
G01Y43500D01*
G03X12500Y44702I-1202J0D01*
G01X7500D01*
G03X6675Y44373I1J-1202D01*
G02X6000Y44664I-275J291D01*
G01Y47060D01*
G02X6575Y47419I400J-1D01*
G03X7100Y47298I526J1081D01*
G01X12100D01*
G03X13302Y48500I0J1202D01*
G01Y53500D01*
G03X12273Y54689I-1201J0D01*
G01X12102Y54714D01*
Y57298D01*
X12500D01*
G03X13702Y58500I0J1202D01*
G01Y63500D01*
G03X12500Y64702I-1202J0D01*
G01X7500D01*
G03X6675Y64373I1J-1202D01*
G02X6000Y64664I-275J291D01*
G01Y67060D01*
G02X6575Y67419I400J-1D01*
G03X7100Y67298I526J1081D01*
G01X12100D01*
G03X13302Y68500I0J1202D01*
G01Y73500D01*
G03X12273Y74689I-1201J0D01*
G01X12102Y74714D01*
Y77298D01*
X12500D01*
G03X13702Y78500I0J1202D01*
G01Y83500D01*
G03X13373Y84325I-1202J-1D01*
G02X13664Y85000I291J275D01*
G01X14736D01*
G02X15027Y84325I0J-400D01*
G03X14698Y83500I873J-826D01*
G01Y78500D01*
G03X15900Y77298I1202J0D01*
G01X20900D01*
G03X22102Y78500I0J1202D01*
G01Y83500D01*
G03X21773Y84325I-1202J-1D01*
G02X22064Y85000I291J275D01*
G01X24898D01*
Y75870D01*
X22130Y73102D01*
X21702D01*
Y73500D01*
G03X20500Y74702I-1202J0D01*
G01X15500D01*
G03X14298Y73500I0J-1202D01*
G01Y68500D01*
G03X15500Y67298I1202J0D01*
G01X20500D01*
G03X21702Y68500I0J1202D01*
G01Y68898D01*
X23000D01*
G03X24259Y69317I0J2101D01*
G02X24898Y68997I239J-320D01*
G01Y64870D01*
X23130Y63102D01*
X22102D01*
Y63500D01*
G03X20900Y64702I-1202J0D01*
G01X15900D01*
G03X14698Y63500I0J-1202D01*
G01Y58500D01*
G03X15900Y57298I1202J0D01*
G01X20900D01*
G03X22102Y58500I0J1202D01*
G01Y58898D01*
X24000D01*
G03X25486Y59514I-1J2102D01*
G01X28486Y62514D01*
G03X29102Y64000I-1486J1487D01*
G01Y67530D01*
G02X29709Y67872I400J0D01*
G03X31000Y67511I1291J2128D01*
G03X32203Y67821I0J2489D01*
G01X32334Y67894D01*
X32898Y67330D01*
Y66208D01*
X32742Y66173D01*
G03X31798Y65000I257J-1173D01*
G01Y60000D01*
G03X33000Y58798I1202J0D01*
G01X36600D01*
G03X37802Y60000I0J1202D01*
G01Y65000D01*
G03X37201Y66040I-1202J-1D01*
G01X37102Y66098D01*
Y68200D01*
G03X36486Y69686I-2102J-1D01*
G01X34686Y71486D01*
G03X33200Y72102I-1487J-1486D01*
G01X32335D01*
X32287Y72130D01*
G03X31000Y72489I-1288J-2130D01*
G03X29709Y72128I0J-2489D01*
G02X29102Y72470I-207J342D01*
G01Y79249D01*
G02X29723Y79582I400J0D01*
G03X30000Y79498I277J415D01*
G01X35000D01*
G03X35502Y80000I0J502D01*
G01Y83600D01*
G03X35000Y84102I-502J0D01*
G01X30000D01*
G03X29723Y84018I0J-499D01*
G02X29102Y84351I-221J333D01*
G01Y85000D01*
X36798D01*
Y83900D01*
G03X38000Y82698I1202J0D01*
G01X43000D01*
G03X44202Y83900I0J1202D01*
G01Y85000D01*
X45798D01*
Y82000D01*
G03X47000Y80798I1202J0D01*
G01X52000D01*
G03X53202Y82000I0J1202D01*
G01Y85000D01*
X54204D01*
G03X55000Y84698I797J900D01*
G01X60330D01*
X61898Y83130D01*
Y75870D01*
X61458Y75430D01*
X61404Y75417D01*
G03X59511Y73000I597J-2417D01*
G03X62000Y70511I2489J0D01*
G03X64417Y72404I0J2490D01*
G01X64430Y72458D01*
X65486Y73514D01*
G03X66102Y75000I-1486J1487D01*
G01Y85000D01*
X66998D01*
Y79500D01*
G03X67500Y78998I502J0D01*
G01X72500D01*
G03X73002Y79500I0J502D01*
G01Y85000D01*
X78098D01*
Y74606D01*
G03X77511Y73000I1902J-1606D01*
G03X82489I2489J0D01*
G03X82315Y73913I-2489J-1D01*
G01X82302Y73949D01*
Y85000D01*
X83998D01*
Y79500D01*
G03X84500Y78998I502J0D01*
G01X89500D01*
G03X90002Y79500I0J502D01*
G01Y85000D01*
X91898D01*
Y76334D01*
G03X91511Y75000I2102J-1333D01*
G03X96489I2489J0D01*
G03X96102Y76334I-2489J1D01*
G01Y85000D01*
X97704D01*
G03X98500Y84698I797J900D01*
G01X103500D01*
G03X104296Y85000I-1J1202D01*
G01X106518D01*
G03X106865Y84785I1480J2001D01*
G02X106965Y84146I-183J-356D01*
G01X106785Y83965D01*
G03X106110Y82338I1626J-1628D01*
G01Y79589D01*
G03X106785Y77962I2301J1D01*
G01X110374Y74373D01*
G03X112001Y73698I1628J1626D01*
G01X118051D01*
X118087Y73685D01*
G03X119000Y73511I914J2315D01*
G03X121489Y76000I0J2489D01*
G03X121315Y76913I-2489J-1D01*
G01X121302Y76949D01*
Y79902D01*
X121401Y79960D01*
G03X122002Y81000I-601J1041D01*
G01Y85000D01*
X123698D01*
Y81000D01*
G03X124470Y79878I1201J0D01*
G01X124598Y79829D01*
Y75655D01*
X124592Y75630D01*
G03X124511Y75000I2408J-630D01*
G03X129489I2489J0D01*
G03X128802Y76717I-2489J0D01*
G01Y79829D01*
X128930Y79878D01*
G03X129702Y81000I-429J1122D01*
G01Y85000D01*
X131595D01*
G02X131928Y84379I0J-400D01*
G03X131511Y83000I2072J-1379D01*
G03X131898Y81666I2489J-1D01*
G01Y72500D01*
G03X133100Y71298I1202J0D01*
G01X138100D01*
G03X139302Y72500I0J1202D01*
G01Y77500D01*
G03X138100Y78702I-1202J0D01*
G01X136102D01*
Y81666D01*
G03X136489Y83000I-2102J1333D01*
G03X136072Y84379I-2489J0D01*
G02X136405Y85000I333J221D01*
G37*
G36*
G01X6000Y129645D02*
Y150000D01*
X49603Y149697D01*
X49601Y149421D01*
X49550Y149365D01*
G03X49369Y149102I891J-807D01*
G01X47600D01*
G03X46114Y148486I1J-2102D01*
G01X44314Y146686D01*
G03X43698Y145200I1486J-1487D01*
G01Y142870D01*
X41267Y140439D01*
X41132Y140522D01*
G03X40500Y140702I-633J-1022D01*
G01X35500D01*
G03X34298Y139500I0J-1202D01*
G01Y134500D01*
G03X35500Y133298I1202J0D01*
G01X40500D01*
G03X41702Y134500I0J1202D01*
G01Y135102D01*
G03X42286Y135514I-902J1898D01*
G01X43016Y136244D01*
G02X43698Y135961I282J-283D01*
G01Y129670D01*
X42130Y128102D01*
X39102D01*
Y128500D01*
G03X37900Y129702I-1202J0D01*
G01X32900D01*
G03X31698Y128500I0J-1202D01*
G01Y123500D01*
G03X32900Y122298I1202J0D01*
G01X37900D01*
G03X39102Y123500I0J1202D01*
G01Y123898D01*
X43000D01*
G03X43251Y123914I-8J2101D01*
G02X43698Y123516I47J-397D01*
G01Y120000D01*
G03X44314Y118514I2102J1D01*
G01X45214Y117614D01*
G03X46700Y116998I1487J1486D01*
G01X55828D01*
G03X57314Y117614I-1J2102D01*
G01X59014Y119314D01*
G03X59469Y119996I-1487J1485D01*
G01X61465D01*
G03X62666Y121197I0J1201D01*
G01Y126315D01*
G03X61465Y127516I-1201J0D01*
G01X53591D01*
G03X52390Y126315I0J-1201D01*
G01Y121202D01*
X47902D01*
Y144330D01*
X48470Y144898D01*
X49240D01*
Y143441D01*
G03X50441Y142240I1201J0D01*
G01X55559D01*
G03X56760Y143441I0J1201D01*
G01Y148559D01*
G03X56644Y149074I-1201J0D01*
G02X57008Y149646I361J172D01*
G01X87611Y149433D01*
G02X88004Y148974I-2J-400D01*
G03X87998Y148900I496J-77D01*
G01Y143900D01*
G03X88500Y143398I502J0D01*
G01X93500D01*
G03X94002Y143900I0J502D01*
G01Y149389D01*
X120998Y149201D01*
Y143900D01*
G03X121500Y143398I502J0D01*
G01X126500D01*
G03X127002Y143900I0J502D01*
G01Y149160D01*
X150000Y149000D01*
Y128405D01*
G02X149379Y128072I-400J0D01*
G03X148000Y128489I-1379J-2072D01*
G03X146707Y128127I0J-2490D01*
G02X146099Y128450I-208J341D01*
G03X145486Y129840I-2099J-96D01*
G01X143686Y131640D01*
G03X142200Y132256I-1487J-1486D01*
G01X141983D01*
X141936Y132390D01*
G03X140800Y133202I-1136J-389D01*
G01X139698D01*
G02X139450Y133915I0J400D01*
G03X140940Y137000I-2449J3085D01*
G03X133060I-3940J0D01*
G03X133088Y136538I3940J7D01*
G02X132725Y136400I-199J-24D01*
G03X132486Y136686I-1726J-1199D01*
G01X129686Y139486D01*
G03X128200Y140102I-1487J-1486D01*
G01X127702D01*
Y140500D01*
G03X126500Y141702I-1202J0D01*
G01X121500D01*
G03X120298Y140500I0J-1202D01*
G01Y135500D01*
G03X121500Y134298I1202J0D01*
G01X126500D01*
G03X127561Y134936I0J1201D01*
G02X128197Y135031I353J-188D01*
G01X128898Y134330D01*
Y133040D01*
G03X128298Y132000I601J-1040D01*
G01Y127000D01*
G03X129500Y125798I1202J0D01*
G01X133100D01*
G03X134302Y127000I0J1202D01*
G01Y132000D01*
G03X133273Y133189I-1201J0D01*
G01X133102Y133214D01*
Y134433D01*
G02X133824Y134669I400J-1D01*
G03X135934Y133207I3176J2331D01*
G02X136169Y132617I-108J-385D01*
G03X135998Y132000I1031J-618D01*
G01Y127000D01*
G03X137200Y125798I1202J0D01*
G01X140800D01*
G03X141324Y125919I-2J1202D01*
G02X141898Y125559I174J-360D01*
G01Y124170D01*
X141330Y123602D01*
X138202D01*
Y124000D01*
G03X137000Y125202I-1202J0D01*
G01X133400D01*
G03X132198Y124000I0J-1202D01*
G01Y122102D01*
X127870D01*
X127102Y122870D01*
Y126700D01*
G03X126486Y128186I-2102J-1D01*
G01X124686Y129986D01*
G03X123200Y130602I-1487J-1486D01*
G01X122002D01*
Y131000D01*
G03X120800Y132202I-1202J0D01*
G01X117200D01*
G03X115998Y131000I0J-1202D01*
G01Y126000D01*
G03X117200Y124798I1202J0D01*
G01X120800D01*
G03X122002Y126000I0J1202D01*
G01Y126398D01*
X122330D01*
X122898Y125830D01*
Y118470D01*
G02X122291Y118128I-400J0D01*
G03X121000Y118489I-1291J-2128D01*
G03X119666Y118102I-1J-2489D01*
G01X118202D01*
Y123000D01*
G03X117000Y124202I-1202J0D01*
G01X113400D01*
G03X112198Y123000I0J-1202D01*
G01Y118000D01*
G03X113056Y116849I1201J0D01*
G01X113198Y116806D01*
Y114401D01*
G02X112999Y114201I-200J0D01*
G03X111798Y113000I0J-1201D01*
G01Y108000D01*
G03X113000Y106798I1202J0D01*
G01X116600D01*
G03X117802Y108000I0J1202D01*
G01Y113000D01*
G03X117742Y113374I-1202J-1D01*
G02X118122Y113898I380J124D01*
G01X119666D01*
G03X121000Y113511I1333J2102D01*
G03X121365Y113538I-1J2489D01*
G02X121706Y112859I59J-396D01*
G01X121514Y112667D01*
G03X120898Y111181I1486J-1487D01*
G01Y106202D01*
X116900D01*
G03X115698Y105000I0J-1202D01*
G01Y100000D01*
G03X116395Y98910I1201J0D01*
G01X116510Y98856D01*
Y95767D01*
X115962Y95764D01*
X115908Y95881D01*
G03X115486Y96486I-1908J-881D01*
G01X113511Y98461D01*
G02X113545Y99058I282J283D01*
G03X114002Y100000I-744J943D01*
G01Y105000D01*
G03X112800Y106202I-1202J0D01*
G01X109200D01*
G03X107998Y105000I0J-1202D01*
G01Y100000D01*
G03X108770Y98878I1201J0D01*
G01X108898Y98829D01*
Y98000D01*
G03X108929Y97640I2102J0D01*
G02X108413Y97191I-394J-68D01*
G03X107709Y97302I-706J-2191D01*
G01X105153D01*
X104702Y97753D01*
Y98584D01*
G03Y102416I-1276J1916D01*
G01Y103000D01*
G03X103500Y104202I-1202J0D01*
G01X99900D01*
G03X98698Y103000I0J-1202D01*
G01Y98000D01*
G03X99732Y96810I1202J0D01*
G03X99918Y96220I2268J391D01*
G02X99558Y95650I-362J-170D01*
G01X95860Y95624D01*
G02X95560Y96292I-3J400D01*
G03X95900Y96803I-1561J1407D01*
G03X97002Y98000I-99J1197D01*
G01Y103000D01*
G03X95800Y104202I-1202J0D01*
G01X92200D01*
G03X90998Y103000I0J-1202D01*
G01Y98002D01*
X83388D01*
G02X83041Y98601I0J400D01*
G03X83122Y98770I-1040J602D01*
G01X83171Y98898D01*
X85000D01*
G03X86486Y99514I-1J2102D01*
G01X87542Y100570D01*
X87596Y100583D01*
G03X89489Y103000I-597J2417D01*
G03X87000Y105489I-2489J0D01*
G03X84583Y103596I0J-2490D01*
G01X84570Y103542D01*
X84130Y103102D01*
X83171D01*
X83122Y103230D01*
G03X82000Y104002I-1122J-429D01*
G01X77000D01*
G03X75798Y102800I0J-1202D01*
G01Y99200D01*
G03X75959Y98601I1202J2D01*
G02X75612Y98002I-347J-199D01*
G01X73102D01*
Y101798D01*
X74000D01*
G03X75202Y103000I0J1202D01*
G01Y106600D01*
G03X74000Y107802I-1202J0D01*
G01X69000D01*
G03X67798Y106600I0J-1202D01*
G01Y103000D01*
G03X68742Y101827I1201J0D01*
G01X68898Y101792D01*
Y96270D01*
X68514Y95886D01*
G03X68224Y95524I1485J-1487D01*
G01X68166Y95432D01*
X66102Y95417D01*
Y97666D01*
G03X66489Y99000I-2102J1333D01*
G03X61511I-2489J0D01*
G03X61898Y97666I2489J-1D01*
G01Y95388D01*
X42000Y95250D01*
G02X41598Y95674I-3J400D01*
G03X41601Y95799I-2098J113D01*
G01X41602Y95998D01*
X42000D01*
G03X43202Y97200I0J1202D01*
G01Y100800D01*
G03X42000Y102002I-1202J0D01*
G01X37000D01*
G03X35798Y100800I0J-1202D01*
G01Y97116D01*
X27670D01*
X26102Y98685D01*
Y105000D01*
G03X25879Y105942I-2101J0D01*
G02X26204Y106519I358J179D01*
G03X27081Y106758I-205J2481D01*
G01X27209Y106819D01*
X28084Y105944D01*
G02X28100Y105396I-283J-283D01*
G03X27798Y104600I900J-797D01*
G01Y101000D01*
G03X29000Y99798I1202J0D01*
G01X34000D01*
G03X35202Y101000I0J1202D01*
G01Y104600D01*
G03X34000Y105802I-1202J0D01*
G01X33586D01*
X33551Y105958D01*
G03X32986Y106986I-2051J-458D01*
G01X29486Y110486D01*
G03X28000Y111102I-1487J-1486D01*
G01X27335D01*
X27287Y111130D01*
G03X26000Y111489I-1288J-2130D01*
G03X23535Y109344I0J-2489D01*
G02X22856Y109116I-396J55D01*
G01X21143Y110829D01*
G03X21202Y111200I-1143J372D01*
G01Y114800D01*
G03X20000Y116002I-1202J0D01*
G01X15000D01*
G03X13798Y114800I0J-1202D01*
G01Y111200D01*
G03X15000Y109998I1202J0D01*
G01X16898D01*
Y104702D01*
X15900D01*
G03X14698Y103500I0J-1202D01*
G01Y98500D01*
G03X15900Y97298I1202J0D01*
G01X20900D01*
G03X21435Y97424I-1J1202D01*
G02X21995Y97186I178J-358D01*
G03X22514Y96329I2005J629D01*
G01X23044Y95799D01*
G02X22764Y95116I-283J-283D01*
G01X12102Y95042D01*
Y97298D01*
X12500D01*
G03X13702Y98500I0J1202D01*
G01Y103500D01*
G03X12500Y104702I-1202J0D01*
G01X7500D01*
G03X6675Y104373I1J-1202D01*
G02X6000Y104664I-275J291D01*
G01Y123059D01*
G02X6480Y123451I400J0D01*
G03X7000Y123398I522J2549D01*
G03X8840Y124160I0J2603D01*
G01X13840Y129160D01*
G03X14602Y131000I-1841J1840D01*
G01Y134792D01*
X14758Y134827D01*
G03X15702Y136000I-257J1173D01*
G01Y146000D01*
G03X14500Y147202I-1202J0D01*
G01X8500D01*
G03X7298Y146000I0J-1202D01*
G01Y136000D01*
G03X8500Y134798I1202J0D01*
G01X9398D01*
Y132078D01*
X6683Y129362D01*
G02X6000Y129645I-283J283D01*
G37*
%LPC*%
G75*
G36*
G01X97998Y77500D02*
Y82500D01*
G02X98500Y83002I502J0D01*
G01X103500D01*
G02X104002Y82500I0J-502D01*
G01Y77500D01*
G02X103500Y76998I-502J0D01*
G01X98500D01*
G02X97998Y77500I0J502D01*
G37*
G36*
G01X117498Y44000D02*
Y49000D01*
G02X118000Y49502I502J0D01*
G01X121600D01*
G02X122102Y49000I0J-502D01*
G01Y44000D01*
G02X121600Y43498I-502J0D01*
G01X118000D01*
G02X117498Y44000I0J502D01*
G37*
G36*
G01X87998Y38500D02*
Y43500D01*
G02X88500Y44002I502J0D01*
G01X93500D01*
G02X94002Y43500I0J-502D01*
G01Y38500D01*
G02X93500Y37998I-502J0D01*
G01X88500D01*
G02X87998Y38500I0J502D01*
G37*
G36*
G01X68940Y51441D02*
Y56559D01*
G02X69441Y57060I501J0D01*
G01X74559D01*
G02X75060Y56559I0J-501D01*
G01Y51441D01*
G02X74559Y50940I-501J0D01*
G01X69441D01*
G02X68940Y51441I0J501D01*
G37*
G36*
G01X46696Y45535D02*
Y53409D01*
G02X47197Y53910I501J0D01*
G01X52315D01*
G02X52816Y53409I0J-501D01*
G01Y45535D01*
G02X52315Y45034I-501J0D01*
G01X47197D01*
G02X46696Y45535I0J501D01*
G37*
G36*
G01X34798Y37900D02*
Y41500D01*
G02X36000Y42702I1202J0D01*
G01X41000D01*
G02X42202Y41500I0J-1202D01*
G01Y37900D01*
G02X41000Y36698I-1202J0D01*
G01X36000D01*
G02X34798Y37900I0J1202D01*
G37*
G36*
G01X54998Y12500D02*
Y17500D01*
G02X55500Y18002I502J0D01*
G01X60500D01*
G02X61002Y17500I0J-502D01*
G01Y12500D01*
G02X60500Y11998I-502J0D01*
G01X55500D01*
G02X54998Y12500I0J502D01*
G37*
G36*
G01X39998Y12000D02*
Y22000D01*
G02X40500Y22502I502J0D01*
G01X46500D01*
G02X47002Y22000I0J-502D01*
G01Y12000D01*
G02X46500Y11498I-502J0D01*
G01X40500D01*
G02X39998Y12000I0J502D01*
G37*
G36*
G01X35498Y30200D02*
Y33800D01*
G02X36000Y34302I502J0D01*
G01X41000D01*
G02X41502Y33800I0J-502D01*
G01Y30200D01*
G02X41000Y29698I-502J0D01*
G01X36000D01*
G02X35498Y30200I0J502D01*
G37*
G36*
G01X104298Y17102D02*
Y17500D01*
G02X105500Y18702I1202J0D01*
G01X110500D01*
G02X111702Y17500I0J-1202D01*
G01Y12500D01*
G02X110500Y11298I-1202J0D01*
G01X105500D01*
G02X104298Y12500I0J1202D01*
G01Y12898D01*
X94102D01*
Y12500D01*
G02X92900Y11298I-1202J0D01*
G01X87900D01*
G02X86698Y12500I0J1202D01*
G01Y17500D01*
G02X87900Y18702I1202J0D01*
G01X92900D01*
G02X94102Y17500I0J-1202D01*
G01Y17102D01*
X104298D01*
G37*
G36*
G01X100898Y30299D02*
Y30500D01*
G02X102100Y31702I1202J0D01*
G01X107100D01*
G02X108302Y30500I0J-1202D01*
G01Y25500D01*
G02X107100Y24298I-1202J0D01*
G01X102100D01*
G02X101651Y24386I2J1202D01*
G03X101102Y24015I-149J-371D01*
G01Y21334D01*
G02X101489Y20000I-2102J-1333D01*
G02X96511I-2489J0D01*
G02X96898Y21334I2489J1D01*
G01Y26200D01*
G02X97514Y27686I2102J-1D01*
G01X99314Y29486D01*
G02X100707Y30099I1485J-1486D01*
G03X100898Y30299I-9J200D01*
G37*
G36*
G01X109298Y25500D02*
Y30500D01*
G02X110500Y31702I1202J0D01*
G01X115500D01*
G02X116702Y30500I0J-1202D01*
G01Y25500D01*
G02X116158Y24495I-1202J1D01*
G03X116095Y23877I219J-335D01*
G01X117886Y22086D01*
G02X118502Y20600I-1486J-1487D01*
G01Y18702D01*
X118900D01*
G02X120102Y17500I0J-1202D01*
G01Y12500D01*
G02X118900Y11298I-1202J0D01*
G01X113900D01*
G02X112698Y12500I0J1202D01*
G01Y17500D01*
G02X113900Y18702I1202J0D01*
G01X114298D01*
Y19730D01*
X111514Y22514D01*
G02X110898Y24000I1486J1487D01*
G01Y24298D01*
X110500D01*
G02X109298Y25500I0J1202D01*
G37*
G36*
G01X54898Y30500D02*
Y35500D01*
G02X56100Y36702I1202J0D01*
G01X61100D01*
G02X62302Y35500I0J-1202D01*
G01Y30500D01*
G02X61100Y29298I-1202J0D01*
G01X60702D01*
Y24334D01*
G02X61089Y23000I-2102J-1333D01*
G02X56111I-2489J0D01*
G02X56498Y24334I2489J1D01*
G01Y29298D01*
X56100D01*
G02X54898Y30500I0J1202D01*
G37*
G36*
G01X112998Y40102D02*
Y41000D01*
G02X114200Y42202I1202J0D01*
G01X117800D01*
G02X119002Y41000I0J-1202D01*
G01Y36000D01*
G02X117800Y34798I-1202J0D01*
G01X114200D01*
G02X113027Y35742I0J1201D01*
G01X112992Y35898D01*
X107334D01*
G02X106000Y35511I-1333J2102D01*
G02Y40489I0J2489D01*
G02X107334Y40102I1J-2489D01*
G01X112998D01*
G37*
G36*
G01X68240Y47504D02*
G02X69441Y48706I1201J1D01*
G01X74559D01*
G02X75760Y47504I-1J-1202D01*
G01Y47030D01*
X75894Y46983D01*
G02X76686Y46486I-693J-1984D01*
G01X78486Y44686D01*
G02X78694Y44443I-1488J-1484D01*
G03X79287Y44385I322J237D01*
G02X80100Y44702I813J-884D01*
G01X85100D01*
G02X86302Y43500I0J-1202D01*
G01Y38500D01*
G02X85100Y37298I-1202J0D01*
G01X84102D01*
Y31702D01*
X84500D01*
G02X85702Y30500I0J-1202D01*
G01Y25500D01*
G02X84500Y24298I-1202J0D01*
G01X79500D01*
G02X78298Y25500I0J1202D01*
G01Y30500D01*
G02X78620Y31318I1202J-1D01*
G03X78435Y31976I-293J273D01*
G02X77514Y32514I565J2024D01*
G01X75514Y34514D01*
G02X74898Y36000I1486J1487D01*
G01Y41184D01*
X69441D01*
G02X68240Y42386I1J1202D01*
G01Y47504D01*
G37*
G36*
G01X14298Y48500D02*
Y53500D01*
G02X15500Y54702I1202J0D01*
G01X20500D01*
G02X21702Y53500I0J-1202D01*
G01Y48500D01*
G02X20673Y47311I-1201J0D01*
G01X20502Y47286D01*
Y44702D01*
X20900D01*
G02X22102Y43500I0J-1202D01*
G01Y38500D01*
G02X20900Y37298I-1202J0D01*
G01X15900D01*
G02X14698Y38500I0J1202D01*
G01Y43500D01*
G02X15900Y44702I1202J0D01*
G01X16298D01*
Y47298D01*
X15500D01*
G02X14298Y48500I0J1202D01*
G37*
G36*
G01X103240Y51386D02*
Y56504D01*
G02X104441Y57706I1201J1D01*
G01X109559D01*
G02X110760Y56504I-1J-1202D01*
G01Y56046D01*
X112055D01*
G02X113541Y55431I1J-2101D01*
G01X114542Y54430D01*
X114596Y54417D01*
G02X116489Y52000I-597J-2417D01*
G02X114000Y49511I-2489J0D01*
G02X111583Y51404I0J2490D01*
G01X111570Y51458D01*
X111185Y51844D01*
X110760D01*
Y51386D01*
G02X109559Y50184I-1201J-1D01*
G01X104441D01*
G02X103240Y51386I1J1202D01*
G37*
G36*
G01X27998Y52000D02*
Y57000D01*
G02X29200Y58202I1202J0D01*
G01X32800D01*
G02X34002Y57000I0J-1202D01*
G01Y52000D01*
G02X33230Y50878I-1201J0D01*
G01X33102Y50829D01*
Y45500D01*
G02X32486Y44014I-2102J1D01*
G01X27956Y39484D01*
G03X28239Y38802I283J-282D01*
G01X33000D01*
G02X34202Y37600I0J-1202D01*
G01Y34000D01*
G02X33000Y32798I-1202J0D01*
G01X27487D01*
X27446Y32653D01*
G02X26909Y31737I-2023J570D01*
G01X22686Y27514D01*
G02X21841Y26998I-1487J1485D01*
G01X21702Y26954D01*
Y26500D01*
G02X20500Y25298I-1202J0D01*
G01X15500D01*
G02X14298Y26500I0J1202D01*
G01Y31500D01*
G02X15500Y32702I1202J0D01*
G01X20500D01*
G02X21326Y32373I0J-1201D01*
G01X21467Y32239D01*
X23322Y34093D01*
Y39923D01*
G02X23937Y41409I2101J1D01*
G01X28898Y46370D01*
Y50829D01*
X28770Y50878D01*
G02X27998Y52000I429J1122D01*
G37*
G36*
G01X35698D02*
Y57000D01*
G02X36900Y58202I1202J0D01*
G01X40500D01*
G02X41702Y57000I0J-1202D01*
G01Y52000D01*
G02X40930Y50878I-1201J0D01*
G01X40802Y50829D01*
Y48334D01*
G02X41189Y47000I-2102J-1333D01*
G02X36211I-2489J0D01*
G02X36598Y48334I2489J1D01*
G01Y50829D01*
X36470Y50878D01*
G02X35698Y52000I429J1122D01*
G37*
G36*
G01X46913Y67315D02*
X46949Y67302D01*
X61051D01*
X61087Y67315D01*
G02X62000Y67489I914J-2315D01*
G02Y62511I0J-2489D01*
G02X60394Y63098I0J2489D01*
G01X47606D01*
G02X46000Y62511I-1606J1902D01*
G02Y67489I0J2489D01*
G02X46913Y67315I-1J-2489D01*
G37*
G36*
G01X68514Y63514D02*
X68458Y63570D01*
X68404Y63583D01*
G02X66511Y66000I597J2417D01*
G02X69000Y68489I2489J0D01*
G02X71232Y67102I0J-2489D01*
G01X76814D01*
G02X78300Y66486I-1J-2102D01*
G01X81435Y63351D01*
X81569Y63433D01*
G02X82197Y63610I628J-1024D01*
G01X87315D01*
G02X88516Y62409I0J-1201D01*
G01Y54535D01*
G02X87315Y53334I-1201J0D01*
G01X82197D01*
G02X80996Y54535I0J1201D01*
G01Y57847D01*
X75944Y62898D01*
X70000D01*
G02X68514Y63514I1J2102D01*
G37*
G36*
G01X116298Y70486D02*
Y70900D01*
G02X117500Y72102I1202J0D01*
G01X122500D01*
G02X123702Y70900I0J-1202D01*
G01Y65900D01*
G02X122500Y64698I-1202J0D01*
G01X117500D01*
G02X116704Y65000I1J1202D01*
G03X116156Y64984I-265J-299D01*
G01X112686Y61514D01*
G02X111200Y60898I-1487J1486D01*
G01X110760D01*
Y60441D01*
G02X109559Y59240I-1201J0D01*
G01X104441D01*
G02X103240Y60441I0J1201D01*
G01Y65559D01*
G02X104441Y66760I1201J0D01*
G01X109559D01*
G02X110620Y66123I0J-1202D01*
G03X111256Y66028I353J188D01*
G01X115114Y69886D01*
G02X116142Y70451I1486J-1486D01*
G01X116298Y70486D01*
G37*
G36*
G01X53798Y78200D02*
Y81800D01*
G02X55000Y83002I1202J0D01*
G01X60000D01*
G02X61202Y81800I0J-1202D01*
G01Y78200D01*
G02X60000Y76998I-1202J0D01*
G01X59602D01*
Y75800D01*
G02X58986Y74314I-2102J1D01*
G01X57186Y72514D01*
G02X55700Y71898I-1487J1486D01*
G01X52334D01*
G02X51000Y71511I-1333J2102D01*
G02X49666Y71898I-1J2489D01*
G01X48000D01*
G02X46514Y72514I1J2102D01*
G01X43759Y75269D01*
G02X43000Y74998I-760J931D01*
G01X38000D01*
G02X36798Y76200I0J1202D01*
G01Y79800D01*
G02X38000Y81002I1202J0D01*
G01X43000D01*
G02X44165Y80095I0J-1202D01*
G02X45486Y79486I-165J-2095D01*
G01X48870Y76102D01*
X49665D01*
X49713Y76130D01*
G02X51000Y76489I1288J-2130D01*
G02X52334Y76102I1J-2489D01*
G01X54830D01*
X55398Y76670D01*
Y76998D01*
X55000D01*
G02X53798Y78200I0J1202D01*
G37*
G36*
G01X63298Y35500D02*
G02X64500Y36702I1202J0D01*
G01X69500D01*
G02X70702Y35500I0J-1202D01*
G01Y30500D01*
G02X69500Y29298I-1202J0D01*
G01X69102D01*
Y24670D01*
X70670Y23102D01*
X85730D01*
X87161Y24533D01*
X87027Y24674D01*
G02X86698Y25500I872J826D01*
G01Y30500D01*
G02X87900Y31702I1202J0D01*
G01X92900D01*
G02X94102Y30500I0J-1202D01*
G01Y25500D01*
G02X92900Y24298I-1202J0D01*
G01X92446D01*
X92402Y24159D01*
G02X91886Y23314I-2001J642D01*
G01X88086Y19514D01*
G02X86600Y18898I-1487J1486D01*
G01X85752D01*
G03X85439Y18249I0J-400D01*
G02X85702Y17500I-939J-750D01*
G01Y12500D01*
G02X84500Y11298I-1202J0D01*
G01X79500D01*
G02X78298Y12500I0J1202D01*
G01Y12898D01*
X70102D01*
Y12500D01*
G02X68900Y11298I-1202J0D01*
G01X63900D01*
G02X62698Y12500I0J1202D01*
G01Y17500D01*
G02X63900Y18702I1202J0D01*
G01X68171D01*
G03X68432Y19405I0J400D01*
G02X68314Y19514I1366J1597D01*
G01X65514Y22314D01*
G02X64898Y23800I1486J1487D01*
G01Y29298D01*
X64500D01*
G02X63298Y30500I0J1202D01*
G01Y35500D01*
G37*
G36*
G01X106998Y142900D02*
Y147900D01*
G02X107500Y148402I502J0D01*
G01X112500D01*
G02X113002Y147900I0J-502D01*
G01Y142900D01*
G02X112500Y142398I-502J0D01*
G01X107500D01*
G02X106998Y142900I0J502D01*
G37*
G36*
G01X71998D02*
Y147900D01*
G02X72500Y148402I502J0D01*
G01X77500D01*
G02X78002Y147900I0J-502D01*
G01Y142900D01*
G02X77500Y142398I-502J0D01*
G01X72500D01*
G02X71998Y142900I0J502D01*
G37*
G36*
G01X58994Y143441D02*
Y148559D01*
G02X59496Y149060I502J-1D01*
G01X64614D01*
G02X65116Y148559I1J-501D01*
G01Y143441D01*
G02X64614Y142940I-502J1D01*
G01X59496D01*
G02X58994Y143441I-1J501D01*
G37*
G36*
G01X34998Y142900D02*
Y147900D01*
G02X35500Y148402I502J0D01*
G01X40500D01*
G02X41002Y147900I0J-502D01*
G01Y142900D01*
G02X40500Y142398I-502J0D01*
G01X35500D01*
G02X34998Y142900I0J502D01*
G37*
G36*
G01X20998Y136000D02*
Y146000D01*
G02X21500Y146502I502J0D01*
G01X27500D01*
G02X28002Y146000I0J-502D01*
G01Y136000D01*
G02X27500Y135498I-502J0D01*
G01X21500D01*
G02X20998Y136000I0J502D01*
G37*
G36*
G01X95498Y106000D02*
Y111000D01*
G02X96000Y111502I502J0D01*
G01X99600D01*
G02X100102Y111000I0J-502D01*
G01Y106000D01*
G02X99600Y105498I-502J0D01*
G01X96000D01*
G02X95498Y106000I0J502D01*
G37*
G36*
G01X76498Y106900D02*
Y110500D01*
G02X77000Y111002I502J0D01*
G01X82000D01*
G02X82502Y110500I0J-502D01*
G01Y106900D01*
G02X82000Y106398I-502J0D01*
G01X77000D01*
G02X76498Y106900I0J502D01*
G37*
G36*
G01X51998Y109000D02*
Y114000D01*
G02X52500Y114502I502J0D01*
G01X56100D01*
G02X56602Y114000I0J-502D01*
G01Y109000D01*
G02X56100Y108498I-502J0D01*
G01X52500D01*
G02X51998Y109000I0J502D01*
G37*
G36*
G01X13798Y118900D02*
Y122500D01*
G02X15000Y123702I1202J0D01*
G01X20000D01*
G02X21202Y122500I0J-1202D01*
G01Y118900D01*
G02X20000Y117698I-1202J0D01*
G01X15000D01*
G02X13798Y118900I0J1202D01*
G37*
G36*
G01X6498Y115000D02*
Y118600D01*
G02X7000Y119102I502J0D01*
G01X12000D01*
G02X12502Y118600I0J-502D01*
G01Y115000D01*
G02X12000Y114498I-502J0D01*
G01X7000D01*
G02X6498Y115000I0J502D01*
G37*
G36*
G01X55198Y105602D02*
Y106000D01*
G02X56400Y107202I1202J0D01*
G01X60000D01*
G02X61202Y106000I0J-1202D01*
G01Y101000D01*
G02X60000Y99798I-1202J0D01*
G01X56400D01*
G02X55198Y101000I0J1202D01*
G01Y101398D01*
X48334D01*
G02X47000Y101011I-1333J2102D01*
G02Y105989I0J2489D01*
G02X48334Y105602I1J-2489D01*
G01X55198D01*
G37*
G36*
G01X35298Y113500D02*
Y118500D01*
G02X36500Y119702I1202J0D01*
G01X41500D01*
G02X42702Y118500I0J-1202D01*
G01Y113500D01*
G02X41758Y112327I-1201J0D01*
G01X41602Y112292D01*
Y109702D01*
X42000D01*
G02X43202Y108500I0J-1202D01*
G01Y104900D01*
G02X42000Y103698I-1202J0D01*
G01X37000D01*
G02X35798Y104900I0J1202D01*
G01Y108500D01*
G02X37000Y109702I1202J0D01*
G01X37398D01*
Y112298D01*
X36500D01*
G02X35298Y113500I0J1202D01*
G37*
G36*
G01X76198Y119102D02*
Y120000D01*
G02X77400Y121202I1202J0D01*
G01X81000D01*
G02X82202Y120000I0J-1202D01*
G01Y115000D01*
G02X81000Y113798I-1202J0D01*
G01X77400D01*
G02X76227Y114742I0J1201D01*
G01X76192Y114898D01*
X69334D01*
G02X68000Y114511I-1333J2102D01*
G02X66666Y114898I-1J2489D01*
G01X65322D01*
G03X64942Y114374I0J-400D01*
G02X65002Y114000I-1142J-375D01*
G01Y109000D01*
G02X63800Y107798I-1202J0D01*
G01X60200D01*
G02X58998Y109000I0J1202D01*
G01Y114000D01*
G02X59905Y115165I1202J0D01*
G02X60514Y116486I2095J-165D01*
G01X62514Y118486D01*
G02X64000Y119102I1487J-1486D01*
G01X66666D01*
G02X68000Y119489I1333J-2102D01*
G02X69334Y119102I1J-2489D01*
G01X76198D01*
G37*
G36*
G01X23298Y123500D02*
Y128500D01*
G02X24500Y129702I1202J0D01*
G01X29500D01*
G02X30702Y128500I0J-1202D01*
G01Y123500D01*
G02X29500Y122298I-1202J0D01*
G01X28102D01*
Y119702D01*
X33100D01*
G02X34302Y118500I0J-1202D01*
G01Y113500D01*
G02X33100Y112298I-1202J0D01*
G01X28100D01*
G02X26898Y113500I0J1202D01*
G01Y114102D01*
G02X26314Y114514I902J1898D01*
G01X24514Y116314D01*
G02X23898Y117800I1486J1487D01*
G01Y122460D01*
G02X23298Y123500I601J1040D01*
G37*
G36*
G01X80898Y133000D02*
G02X81514Y134486I2102J-1D01*
G01X81570Y134542D01*
X81583Y134596D01*
G02X84000Y136489I2417J-597D01*
G02X86489Y134000I0J-2489D01*
G02X85102Y131768I-2489J0D01*
G01Y129171D01*
X85230Y129122D01*
G02X86002Y128000I-429J-1122D01*
G01Y123000D01*
G02X84800Y121798I-1202J0D01*
G01X81200D01*
G02X79998Y123000I0J1202D01*
G01Y128000D01*
G02X80770Y129122I1201J0D01*
G01X80898Y129171D01*
Y133000D01*
G37*
G36*
G01X71298Y134500D02*
Y139500D01*
G02X72500Y140702I1202J0D01*
G01X77500D01*
G02X78702Y139500I0J-1202D01*
G01Y134500D01*
G02X77500Y133298I-1202J0D01*
G01X77102D01*
Y129214D01*
X77273Y129189D01*
G02X78302Y128000I-172J-1189D01*
G01Y123000D01*
G02X77100Y121798I-1202J0D01*
G01X73500D01*
G02X72298Y123000I0J1202D01*
G01Y128000D01*
G02X72898Y129040I1201J0D01*
G01Y133298D01*
X72500D01*
G02X71298Y134500I0J1202D01*
G37*
G36*
G01X106298D02*
Y139500D01*
G02X107500Y140702I1202J0D01*
G01X112500D01*
G02X113702Y139500I0J-1202D01*
G01Y134500D01*
G02X113402Y133706I-1201J0D01*
G01Y132171D01*
X113530Y132122D01*
G02X114302Y131000I-429J-1122D01*
G01Y126000D01*
G02X113100Y124798I-1202J0D01*
G01X109532D01*
Y113431D01*
G02X109394Y112681I-2101J-1D01*
G02X109489Y112000I-2393J-681D01*
G02X104511I-2489J0D01*
G02X104935Y113389I2489J-1D01*
G02X105268Y114191I2066J-388D01*
G01X103061Y116398D01*
X102202D01*
Y116000D01*
G02X101000Y114798I-1202J0D01*
G01X97400D01*
G02X96198Y116000I0J1202D01*
G01Y121000D01*
G02X97400Y122202I1202J0D01*
G01X101000D01*
G02X102202Y121000I0J-1202D01*
G01Y120602D01*
X103931D01*
G02X104770Y120427I-1J-2102D01*
G03X105330Y120794I160J367D01*
G01Y122798D01*
X101200D01*
G02X99998Y124000I0J1202D01*
G01Y129000D01*
G02X101200Y130202I1202J0D01*
G01X104800D01*
G02X106002Y129000I0J-1202D01*
G01Y128443D01*
G02X106686Y127986I-803J-1942D01*
G01X107616Y127056D01*
G03X108298Y127339I282J283D01*
G01Y131000D01*
G02X109070Y132122I1201J0D01*
G01X109198Y132171D01*
Y133298D01*
X107500D01*
G02X106298Y134500I0J1202D01*
G37*
G36*
G01X98714Y141666D02*
G02X98327Y143000I2102J1333D01*
G02X103305I2489J0D01*
G02X102918Y141666I-2489J-1D01*
G01Y136816D01*
G02X102302Y135330I-2102J1D01*
G01X97402Y130430D01*
Y130171D01*
X97530Y130122D01*
G02X98302Y129000I-429J-1122D01*
G01Y124000D01*
G02X97100Y122798I-1202J0D01*
G01X93500D01*
G02X92751Y123061I1J1202D01*
G03X92102Y122748I-249J-313D01*
G01Y118000D01*
G02X91486Y116514I-2102J1D01*
G01X91430Y116458D01*
X91417Y116404D01*
G02X89000Y114511I-2417J597D01*
G02X86511Y117000I0J2489D01*
G02X87898Y119232I2489J0D01*
G01Y133278D01*
G02X88087Y134148I2102J-1D01*
G03X87990Y134412I-182J83D01*
G02X87298Y135500I509J1088D01*
G01Y140500D01*
G02X88500Y141702I1202J0D01*
G01X93500D01*
G02X94702Y140500I0J-1202D01*
G01Y135500D01*
G02X93500Y134298I-1202J0D01*
G01X93110D01*
X93095Y134114D01*
G02X92486Y132792I-2095J164D01*
G01X92102Y132408D01*
Y130252D01*
G03X92751Y129939I400J0D01*
G02X93070Y130122I750J-938D01*
G01X93198Y130171D01*
Y131300D01*
G02X93814Y132786I2102J-1D01*
G01X98714Y137686D01*
Y141666D01*
G37*
G54D22*
X20000Y20000D03*
%LPD*%
G75*
G54D10*
X9600Y29000D03*
X10000Y61000D03*
X9600Y51000D03*
X10000Y41000D03*
X9600Y91000D03*
X10000Y81000D03*
X9600Y71000D03*
X10000Y101000D03*
X18000Y29000D03*
X18400Y61000D03*
X18000Y51000D03*
X18400Y41000D03*
X18000Y91000D03*
X18400Y81000D03*
X18000Y71000D03*
X18400Y101000D03*
X39000Y116000D03*
X30600D03*
X38000Y137000D03*
Y145400D03*
X27000Y126000D03*
X35400D03*
X58000Y15000D03*
X66400D03*
X67000Y33000D03*
X58600D03*
X70000Y82000D03*
Y90400D03*
X82000Y28000D03*
X90400D03*
X82000Y15000D03*
X90400D03*
X91000Y41000D03*
X82600D03*
X87000Y82000D03*
Y90400D03*
X101000Y80000D03*
Y88400D03*
X75000Y137000D03*
Y145400D03*
X91000Y138000D03*
Y146400D03*
X113000Y28000D03*
X104600D03*
X108000Y15000D03*
X116400D03*
X131600Y42000D03*
X120000Y60000D03*
Y68400D03*
X110000Y137000D03*
Y145400D03*
X124000Y138000D03*
Y146400D03*
X146000Y31000D03*
X137600D03*
X140000Y42000D03*
X136000Y65000D03*
X144400D03*
X136000Y54000D03*
X144400D03*
X144000Y75000D03*
X135600D03*
G54D20*
G01X10000Y41000D02*
Y29400D01*
X9600Y29000D01*
G01X10000Y61000D02*
Y51400D01*
X9600Y51000D01*
G01X10000Y81000D02*
Y71400D01*
X9600Y71000D01*
G01X10000Y101000D02*
Y91400D01*
X9600Y91000D01*
G01X132500Y14000D02*
X126800D01*
X125000Y12200D01*
Y9000D01*
X122000Y6000D01*
X33300D01*
X30500Y8800D01*
Y17000D01*
G01X18000Y29000D02*
X21200D01*
X25423Y33223D01*
Y36966D01*
G01X31000Y54500D02*
Y45500D01*
X25423Y39923D01*
Y36966D01*
G01X30500Y35800D02*
X26589D01*
X25423Y36966D01*
G01X30300Y36000D02*
X30500Y35800D01*
G01X27000Y75000D02*
Y64000D01*
X24000Y61000D01*
X18400D01*
G01X34800Y62500D02*
X35000Y62700D01*
Y68200D01*
X33200Y70000D01*
X31000D01*
G01X18000Y51000D02*
X18400Y50600D01*
Y41000D01*
G01X38700Y54500D02*
Y47000D01*
G01X18000Y71000D02*
X23000D01*
X27000Y75000D01*
G01X40500Y85700D02*
Y86515D01*
X35000Y92015D01*
G01D02*
X31633D01*
X27000Y87382D01*
Y75000D01*
G01X46000Y92015D02*
X35000D01*
G01X18000Y91000D02*
Y81400D01*
X18400Y81000D01*
G01X27000Y126000D02*
X26000Y125000D01*
Y117800D01*
X27800Y116000D01*
X30600D01*
G01X18400Y101000D02*
X19000Y101600D01*
Y110000D01*
G01X39500Y99000D02*
Y95800D01*
X38715Y95015D01*
X26800D01*
X24000Y97815D01*
Y105000D01*
X19000Y110000D01*
G01X17500Y113000D02*
X19000Y111500D01*
Y110000D01*
G01X31500Y102800D02*
Y105500D01*
X28000Y109000D01*
X26000D01*
G01X39500Y106700D02*
Y115500D01*
X39000Y116000D01*
G01X38000Y137000D02*
X40800D01*
X45800Y142000D01*
G01X35400Y126000D02*
X43000D01*
X45800Y128800D01*
G01X66400Y15000D02*
X82000D01*
G01X67000Y33000D02*
Y23800D01*
X69800Y21000D01*
X86600D01*
X90400Y24800D01*
Y28000D01*
G01X58600Y33000D02*
Y23000D01*
G01X57500Y87700D02*
X60300D01*
X64000Y84000D01*
G01D02*
Y75000D01*
X62000Y73000D01*
G01X64000Y99000D02*
Y84000D01*
G01X46000Y65000D02*
X46200Y65200D01*
X61800D01*
X62000Y65000D01*
G01X69000Y66000D02*
X70000Y65000D01*
X76814D01*
X83342Y58472D01*
X84756D01*
G01X57500Y80000D02*
Y75800D01*
X55700Y74000D01*
X51000D01*
G01D02*
X48000D01*
X44000Y78000D01*
X40500D01*
G01X62000Y111500D02*
Y115000D01*
X64000Y117000D01*
X68000D01*
G01X79200Y117500D02*
X78700Y117000D01*
X68000D01*
G01X70000Y90400D02*
Y94400D01*
X71500Y95900D01*
G01X45800Y128800D02*
Y120000D01*
X46700Y119100D01*
X55828D01*
X57528Y120800D01*
Y123756D01*
G01X58200Y103500D02*
X47000D01*
G01X45800Y142000D02*
Y145200D01*
X47600Y147000D01*
X52000D01*
X53000Y146000D01*
G01X45800Y128800D02*
Y142000D01*
G01X82600Y41000D02*
X82000Y40400D01*
Y32653D01*
G01D02*
Y28000D01*
G01X72000Y44945D02*
X72055Y45000D01*
X75200D01*
X77000Y43200D01*
Y36000D01*
X79000Y34000D01*
X80653D01*
X82000Y32653D01*
G01X99000Y20000D02*
Y26200D01*
X100800Y28000D01*
X104600D01*
G01X90400Y15000D02*
X108000D01*
G01X72000Y44945D02*
X75200D01*
G01X80000Y73000D02*
X80200Y73200D01*
Y93700D01*
X78000Y95900D01*
G01X94000Y75000D02*
Y88600D01*
X92200Y90400D01*
X87000D01*
G01X99200Y118500D02*
X103931D01*
X107431Y115000D01*
G01X94000Y100500D02*
Y97700D01*
X92200Y95900D01*
X78000D01*
G01D02*
X71500D01*
G01Y104800D02*
X71000Y104300D01*
Y96400D01*
X71500Y95900D01*
G01X89000Y117000D02*
X90000Y118000D01*
Y133278D01*
X91000Y134278D01*
Y138000D01*
G01X79500Y101000D02*
X85000D01*
X87000Y103000D01*
G01X83000Y125500D02*
Y133000D01*
X84000Y134000D01*
G01X75300Y125500D02*
X75000Y125800D01*
Y137000D01*
G01X95300Y126500D02*
Y131300D01*
X100816Y136816D01*
Y143000D01*
G01X116400Y15000D02*
Y20600D01*
X113000Y24000D01*
Y28000D01*
G01X120000Y68400D02*
X116600D01*
X111200Y63000D01*
X107000D01*
G01X106000Y38000D02*
X115500D01*
X116000Y38500D01*
G01X114000Y52000D02*
X112055Y53945D01*
X107000D01*
G01X144400Y54000D02*
X144569Y54169D01*
Y56431D01*
X142000Y59000D01*
X131000D01*
X127000Y63000D01*
Y64000D01*
G01X101000Y88400D02*
X106600D01*
X108000Y87000D01*
G01X127000Y64000D02*
X128000Y65000D01*
X136000D01*
G01X122800Y91500D02*
X123000Y91700D01*
Y111181D01*
X125000Y113181D01*
Y122000D01*
G01X126700Y83500D02*
Y75300D01*
X127000Y75000D01*
G01X113000Y81000D02*
X115100Y83100D01*
Y86870D01*
X115109Y86879D01*
Y90318D01*
X117388Y92597D01*
Y93388D01*
X118612Y94612D01*
Y101646D01*
X118700Y101734D01*
Y102500D01*
G01X129169Y112931D02*
Y112831D01*
X132000Y110000D01*
Y91050D01*
X134250Y88800D01*
X140500D01*
G01X103000Y126500D02*
X105200D01*
X107431Y124269D01*
Y115000D01*
G01X107000Y112000D02*
Y113000D01*
X107431Y113431D01*
Y115000D01*
G01X135200Y121500D02*
X133700Y120000D01*
X127000D01*
X125000Y122000D01*
G01X119000Y128500D02*
X123200D01*
X125000Y126700D01*
Y122000D01*
G01X127000Y98000D02*
Y106000D01*
G01X114000Y94000D02*
Y95000D01*
X111000Y98000D01*
Y102500D01*
G01X115200Y120500D02*
X115300Y120400D01*
Y115000D01*
G01X121000Y116000D02*
X116300D01*
X115300Y115000D01*
G01X114800Y110500D02*
X115300D01*
Y115000D01*
G01X131300Y129500D02*
X131000Y129800D01*
Y135200D01*
X128200Y138000D01*
X124000D01*
G01X111300Y128500D02*
Y135700D01*
X110000Y137000D01*
G01X146000Y31000D02*
Y34200D01*
X144200Y36000D01*
X132200D01*
X131600Y36600D01*
Y42000D01*
G01X134000Y83000D02*
Y76600D01*
X135600Y75000D01*
G01X148500Y92700D02*
Y98000D01*
G01X148000Y93200D02*
X148500Y92700D01*
G01X144400Y65000D02*
X147800D01*
X150000Y67200D01*
Y77000D01*
G01D02*
Y83500D01*
X148500Y85000D01*
G01X150000Y77000D02*
X148000Y75000D01*
X144000D01*
G01X139800Y114500D02*
X140300Y115000D01*
X146200D01*
X148000Y116800D01*
Y126000D01*
G01X143000Y99000D02*
X147000D01*
X148000Y98000D01*
X148500D01*
G01X143700Y106500D02*
X147490D01*
X148500Y105490D01*
Y98000D01*
G01X139000Y129500D02*
X139654Y130154D01*
X142200D01*
X144000Y128354D01*
Y123300D01*
X142200Y121500D01*
X135200D01*
G54D11*
X9500Y116800D03*
X38500Y32000D03*
Y39700D03*
X30500Y35800D03*
X40500Y78000D03*
Y85700D03*
X32500Y81800D03*
X39500Y99000D03*
Y106700D03*
X31500Y102800D03*
X17500Y113000D03*
Y120700D03*
X57500Y80000D03*
Y87700D03*
X49500Y83800D03*
X71500Y104800D03*
X79500Y101000D03*
Y108700D03*
X148500Y85000D03*
Y92700D03*
X140500Y88800D03*
G54D21*
G01X11500Y141000D02*
X12000Y140500D01*
Y131000D01*
X7000Y126000D01*
G01X136000Y54000D02*
X122000D01*
G01D02*
X128000Y48000D01*
X145000D01*
X148000Y45000D01*
Y43000D01*
G01X122000Y54000D02*
X120000Y56000D01*
Y60000D01*
G01X140000Y42000D02*
X147000D01*
X148000Y43000D01*
G01X136000Y106500D02*
Y103000D01*
X135999Y102999D01*
Y98000D01*
G54D12*
X11500Y141000D03*
X30500Y17000D03*
X24500Y141000D03*
X43500Y17000D03*
X132500Y14000D03*
X145500D03*
G54D13*
X7000Y126000D03*
X38700Y47000D03*
X31000Y70000D03*
X26000Y109000D03*
X58600Y23000D03*
X62000Y65000D03*
Y73000D03*
X46000Y65000D03*
Y92015D03*
X69000Y66000D03*
X51000Y74000D03*
X68000Y117000D03*
X64000Y99000D03*
X47000Y103500D03*
X99000Y20000D03*
X80000Y73000D03*
X94000Y75000D03*
X89000Y117000D03*
X87000Y103000D03*
X84000Y134000D03*
X100816Y143000D03*
X122000Y26000D03*
X106000Y38000D03*
X127000Y64000D03*
X114000Y52000D03*
X108000Y87000D03*
X114000Y94000D03*
X119000Y76000D03*
X127000Y75000D03*
X113000Y81000D03*
X129169Y112931D03*
X107000Y112000D03*
X127000Y98000D03*
Y106000D03*
X121000Y116000D03*
X148000Y43000D03*
X134000Y83000D03*
X143000Y99000D03*
X135999Y98000D03*
X148000Y126000D03*
G54D14*
X20000Y20000D03*
X137000Y137000D03*
G54D15*
X31000Y54500D03*
X38700D03*
X34800Y62500D03*
X62000Y111500D03*
X54300D03*
X58200Y103500D03*
X94000Y100500D03*
X101700D03*
X97800Y108500D03*
X99200Y118500D03*
X83000Y125500D03*
X75300D03*
X79200Y117500D03*
X95300Y126500D03*
X116000Y38500D03*
X123700D03*
X119800Y46500D03*
X119000Y83500D03*
X126700D03*
X122800Y91500D03*
X111000Y102500D03*
X118700D03*
X114800Y110500D03*
X115200Y120500D03*
X131300Y129500D03*
X119000Y128500D03*
X111300D03*
X103000Y126500D03*
X135200Y121500D03*
X136000Y106500D03*
X143700D03*
X139800Y114500D03*
X139000Y129500D03*
G54D16*
X72000Y44945D03*
Y54000D03*
X62055Y146000D03*
X53000D03*
X107000Y53945D03*
Y63000D03*
G54D17*
X49756Y49472D03*
X84756Y58472D03*
G54D18*
X57528Y123756D03*
G54D19*
G01X9500Y114298D02*
Y116800D01*
G01D02*
Y119302D01*
G01Y116800D02*
X12702D01*
G01X38500Y29498D02*
Y32000D01*
G01D02*
Y34502D01*
G01X35298Y32000D02*
X38500D01*
G01D02*
X41702D01*
G01X39798Y17000D02*
X43500D01*
G01X32500Y76500D02*
Y81800D01*
G01D02*
Y84302D01*
G01Y81800D02*
X35702D01*
G01X24500Y135298D02*
Y141000D01*
G01D02*
Y146702D01*
G01X20798Y141000D02*
X24500D01*
G01D02*
X28202D01*
G01X38000Y142198D02*
Y145400D01*
G01D02*
Y148602D01*
G01X34798Y145400D02*
X38000D01*
G01D02*
X41202D01*
G01X48000Y17000D02*
X43500D01*
G01X58000Y11798D02*
Y15000D01*
G01D02*
Y18202D01*
G01X54798Y15000D02*
X58000D01*
G01D02*
X61202D01*
G01X43500Y11298D02*
Y17000D01*
G01D02*
Y22702D01*
G01X68739Y54000D02*
X72000D01*
G01X49756Y44833D02*
Y49472D01*
G01D02*
Y54111D01*
G01X46495Y49472D02*
X49756D01*
G01D02*
X53017D01*
G01X49500Y95800D02*
Y93589D01*
X49588Y93501D01*
Y90529D01*
X49500Y90441D01*
Y83800D01*
G01X70000Y77000D02*
Y82000D01*
G01X54300Y108298D02*
Y111500D01*
G01D02*
Y114702D01*
G01X51798Y111500D02*
X54300D01*
G01D02*
X56802D01*
G01X62055Y142739D02*
Y146000D01*
G01X58794D02*
X62055D01*
G01D02*
X65316D01*
G01X91000Y37798D02*
Y41000D01*
G01D02*
Y44202D01*
G01X87798Y41000D02*
X91000D01*
G01D02*
X94202D01*
G01X72000Y50739D02*
Y54000D01*
G01D02*
Y57261D01*
G01Y54000D02*
X75261D01*
G01X87000Y78798D02*
Y82000D01*
G01X83798D02*
X87000D01*
G01D02*
X90202D01*
G01X97798Y80000D02*
X101000D01*
G01X97800Y105298D02*
Y108500D01*
G01D02*
Y111702D01*
G01X95298Y108500D02*
X97800D01*
G01D02*
X100302D01*
G01X79500Y106198D02*
Y108700D01*
G01D02*
Y111202D01*
G01X76298Y108700D02*
X79500D01*
G01D02*
X82702D01*
G01X91000Y143198D02*
Y146400D01*
G01X87798D02*
X91000D01*
G01D02*
X94202D01*
G01X75000Y142198D02*
Y145400D01*
G01X71798D02*
X75000D01*
G01D02*
X78202D01*
G01X137600Y31000D02*
X128000D01*
G01D02*
X125167D01*
X123700Y32467D01*
G01D02*
Y38500D01*
G01X122000Y26000D02*
X123700Y27700D01*
Y32467D01*
G01X145500Y14000D02*
Y22800D01*
X143300Y25000D01*
X133000D01*
X128000Y30000D01*
Y31000D01*
G01X119800Y43298D02*
Y46500D01*
G01D02*
Y49702D01*
G01X117298Y46500D02*
X119800D01*
G01D02*
X122302D01*
G01X119000Y83500D02*
Y76000D01*
G01D02*
X112001D01*
X108412Y79589D01*
Y82338D01*
X111588Y85514D01*
Y91121D01*
X107709Y95000D01*
X104200D01*
X102000Y97200D01*
Y100200D01*
X101700Y100500D01*
G01X101000Y76798D02*
Y80000D01*
G01D02*
Y83202D01*
G01Y80000D02*
X104202D01*
G01X103426Y100500D02*
X101700D01*
G01X124000Y143198D02*
Y146400D01*
G01X120798D02*
X124000D01*
G01D02*
X127202D01*
G01X110000Y142198D02*
Y145400D01*
G01X106798D02*
X110000D01*
G01D02*
X113202D01*
M02*
